<svg width="61" height="60" viewBox="0 0 61 60" fill="none" xmlns="http://www.w3.org/2000/svg">
<path d="M53.5049 9.375H7.56738C7.30957 9.375 7.09863 9.58594 7.09863 9.84375V13.5938C7.09863 13.8516 7.30957 14.0625 7.56738 14.0625H53.5049C53.7627 14.0625 53.9736 13.8516 53.9736 13.5938V9.84375C53.9736 9.58594 53.7627 9.375 53.5049 9.375ZM53.5049 45.9375H7.56738C7.30957 45.9375 7.09863 46.1484 7.09863 46.4062V50.1562C7.09863 50.4141 7.30957 50.625 7.56738 50.625H53.5049C53.7627 50.625 53.9736 50.4141 53.9736 50.1562V46.4062C53.9736 46.1484 53.7627 45.9375 53.5049 45.9375ZM53.5049 27.6562H7.56738C7.30957 27.6562 7.09863 27.8672 7.09863 28.125V31.875C7.09863 32.1328 7.30957 32.3438 7.56738 32.3438H53.5049C53.7627 32.3438 53.9736 32.1328 53.9736 31.875V28.125C53.9736 27.8672 53.7627 27.6562 53.5049 27.6562Z" fill="black"/>
</svg>
